<?xml version="1.0" encoding="utf-8"?>
<!-- Generator: Adobe Illustrator 27.9.0, SVG Export Plug-In . SVG Version: 6.00 Build 0)  -->
<svg version="1.1" id="Layer_1" xmlns="http://www.w3.org/2000/svg" xmlns:xlink="http://www.w3.org/1999/xlink" x="0px" y="0px"
	 viewBox="0 0 1400 400" style="enable-background:new 0 0 1400 400;" xml:space="preserve">
<style type="text/css">
	.st0{fill:#0D6EFD;}
</style>
<g>
	<g>
		<path d="M493.98,128.75v22.15l-69.22,98.4h69.22v26.2H387.06v-22.15l68.37-98.4h-65.6v-26.2H493.98z"/>
		<path d="M498.91,225.88c0-31.52,25.13-52.4,53.46-52.4s53.46,20.87,53.46,52.4c0,31.31-25.13,52.18-53.46,52.18
			S498.91,257.19,498.91,225.88z M577.5,225.88c0-15.55-11.29-26.41-25.13-26.41s-25.13,10.86-25.13,26.41
			c0,15.34,11.29,26.2,25.13,26.2S577.5,241.22,577.5,225.88z"/>
		<path d="M715.78,220.98v54.53h-27.9v-52.82c0-15.55-9.37-22.79-18.96-22.79c-10.01,0-22.36,5.54-22.36,23.43v52.19h-27.9V121.94
			h27.9v69.86c4.26-12.78,20.23-18.32,29.82-18.32C702.36,173.48,715.99,191.16,715.78,220.98z"/>
		<path d="M808.18,176.04h27.9v99.47h-27.9v-14.27c-6.6,10.22-19.38,16.83-32.8,16.83c-27.48,0-47.92-21.3-47.92-52.18
			s20.02-52.4,48.56-52.4c12.78,0,25.56,5.54,32.16,15.76V176.04z M807.32,225.88c0-15.12-12.14-26.41-25.99-26.41
			c-14.48,0-25.35,11.93-25.35,26.41c0,13.84,10.86,26.2,25.56,26.2C795.61,252.08,807.32,240.15,807.32,225.88z"/>
		<path class="st0" d="M857.02,202.45c0-41.53,33.01-76.25,74.55-76.25c23.22,0,43.45,10.22,56.44,26.41l-16.19,12.99
			c-9.37-11.5-23.86-18.96-40.04-18.96c-29.82,0-52.82,25.56-52.82,55.81c0,30.03,22.79,55.17,52.82,55.17
			c16.19,0,30.67-7.46,40.04-18.96l16.19,12.99c-12.99,16.19-33.23,26.41-56.44,26.41C890.03,278.06,857.02,243.98,857.02,202.45z"
			/>
		<path class="st0" d="M1095.42,218.64v56.87h-20.87v-55.59c0-16.19-9.8-25.99-22.58-25.99c-12.99,0-28.75,7.67-28.75,28.12v53.46
			h-20.87V121.94h20.87v69.22c5.75-12.14,21.73-17.68,32.38-17.68C1080.73,173.48,1095.64,190.31,1095.42,218.64z"/>
		<path class="st0" d="M1192.61,176.04h20.87v99.47h-20.87v-16.83c-6.39,11.5-20.02,19.38-35.36,19.38
			c-25.99,0-48.35-21.73-48.35-52.4c0-29.61,21.09-52.18,49.2-52.18c14.48,0,28.12,6.18,34.51,17.47V176.04z M1192.4,225.67
			c0-19.17-15.98-32.59-31.95-32.59c-17.04,0-30.46,14.91-30.46,32.59c0,17.89,13.42,32.8,30.88,32.8
			C1177.49,258.47,1192.4,244.41,1192.4,225.67z"/>
		<path class="st0" d="M1282.33,275.51c-27.05,0-36.42-16.83-36.42-42.39V193.5h-17.89v-17.47h17.89v-25.77l20.87-6.39v32.16h20.87
			v17.47h-20.87v39.19c-0.21,11.29,2.34,23.22,17.68,23.22h5.75v19.6H1282.33z"/>
	</g>
	<g>
		<path d="M201.69,184.13c0,6.48,5.35,8.91,9.88,8.91v13.77c-4.54,0-9.88,2.43-9.88,8.91v25.11c0,19.76-14.9,32.56-32.88,32.56
			H156.5v-16.85h7.94c12.96,0,17.33-7.94,17.33-16.68v-22.35c0-8.42,3.89-14.74,8.58-17.66c-4.7-2.75-8.58-9.07-8.58-17.49v-22.19
			c0-8.91-4.37-16.85-17.33-16.85h-7.94v-16.68h12.31c17.98,0,32.88,12.63,32.88,32.56V184.13z"/>
		<path d="M258.49,182.34c0,8.42-3.89,14.74-8.75,17.49c4.86,2.92,8.75,9.07,8.75,17.66v22.35c0,8.75,4.37,16.68,17.33,16.68h7.78
			v16.85h-12.15c-17.98,0-33.04-12.8-32.88-32.56v-25.11c0-6.48-5.35-8.91-9.88-8.91v-13.77c4.54,0,9.88-2.43,9.88-8.91v-24.95
			c-0.16-19.92,14.9-32.56,32.88-32.56h12.15v16.68h-7.78c-12.96,0-17.33,7.94-17.33,16.85V182.34z"/>
	</g>
	<path class="st0" d="M292.24,109.68c10.22,0,18.54,8.32,18.54,18.54v33.48v21h21H345l-30.47,43.88l-3.75,5.4v6.58v33.23
		c0,10.22-8.32,18.54-18.54,18.54h-142.9c-10.22,0-18.54-8.32-18.54-18.54V128.22c0-10.22,8.32-18.54,18.54-18.54H292.24
		 M292.24,88.68h-142.9c-21.84,0-39.54,17.7-39.54,39.54v143.57c0,21.84,17.7,39.54,39.54,39.54h142.9
		c21.84,0,39.54-17.7,39.54-39.54v-33.23l53.37-76.86h-53.37v-33.48C331.78,106.38,314.07,88.68,292.24,88.68L292.24,88.68z"/>
</g>
</svg>
