<?xml version="1.0" encoding="utf-8"?>
<!-- Generator: Adobe Illustrator 27.9.0, SVG Export Plug-In . SVG Version: 6.00 Build 0)  -->
<svg version="1.1" id="Layer_1" xmlns="http://www.w3.org/2000/svg" xmlns:xlink="http://www.w3.org/1999/xlink" x="0px" y="0px"
	 viewBox="0 0 400 400" style="enable-background:new 0 0 400 400;" xml:space="preserve">
<style type="text/css">
	.st0{fill:#0D6EFD;}
</style>
<g>
	<g>
		<path d="M154.22,184.13c0,6.48,5.35,8.91,9.88,8.91v13.77c-4.54,0-9.88,2.43-9.88,8.91v25.11c0,19.76-14.9,32.56-32.88,32.56
			h-12.31v-16.85h7.94c12.96,0,17.33-7.94,17.33-16.68v-22.35c0-8.42,3.89-14.74,8.58-17.66c-4.7-2.75-8.58-9.07-8.58-17.49v-22.19
			c0-8.91-4.37-16.85-17.33-16.85h-7.94v-16.68h12.31c17.98,0,32.88,12.63,32.88,32.56V184.13z"/>
		<path d="M211.02,182.34c0,8.42-3.89,14.74-8.75,17.49c4.86,2.92,8.75,9.07,8.75,17.66v22.35c0,8.75,4.37,16.68,17.33,16.68h7.78
			v16.85h-12.15c-17.98,0-33.04-12.8-32.88-32.56v-25.11c0-6.48-5.35-8.91-9.88-8.91v-13.77c4.54,0,9.88-2.43,9.88-8.91v-24.95
			c-0.16-19.92,14.9-32.56,32.88-32.56h12.15v16.68h-7.78c-12.96,0-17.33,7.94-17.33,16.85V182.34z"/>
	</g>
	<path class="st0" d="M244.77,109.68c10.22,0,18.54,8.32,18.54,18.54v33.48v21h21h13.22l-30.47,43.88l-3.75,5.4v6.58v33.23
		c0,10.22-8.32,18.54-18.54,18.54h-142.9c-10.22,0-18.54-8.32-18.54-18.54V128.22c0-10.22,8.32-18.54,18.54-18.54H244.77
		 M244.77,88.68h-142.9c-21.84,0-39.54,17.7-39.54,39.54v143.57c0,21.84,17.7,39.54,39.54,39.54h142.9
		c21.84,0,39.54-17.7,39.54-39.54v-33.23l53.37-76.86h-53.37v-33.48C284.31,106.38,266.61,88.68,244.77,88.68L244.77,88.68z"/>
</g>
</svg>
